<?xml version="1.0" encoding="utf-8"?>
<!-- Generator: Adobe Illustrator 22.0.1, SVG Export Plug-In . SVG Version: 6.00 Build 0)  -->
<svg version="1.1" id="Capa_1" xmlns="http://www.w3.org/2000/svg" xmlns:xlink="http://www.w3.org/1999/xlink" x="0px" y="0px"
	 viewBox="0 0 360.3 82" style="enable-background:new 0 0 360.3 82;" xml:space="preserve">
<style type="text/css">
	.st0{fill:none;stroke:#008F45;stroke-width:2;stroke-miterlimit:10;}
	.st1{fill:none;stroke:#EDEEF0;stroke-width:2;stroke-miterlimit:10;}
	.st2{fill:none;stroke:#BE0811;stroke-width:2;stroke-miterlimit:10;}
	.st3{fill:#185F9E;}
</style>
<line class="st0" x1="115.2" y1="56.3" x2="196.8" y2="56.3"/>
<line class="st1" x1="196.7" y1="56.3" x2="278.3" y2="56.3"/>
<line class="st2" x1="278.3" y1="56.3" x2="359.8" y2="56.4"/>
<path class="st3" d="M64.5,79.6c-10.4,0-20.9,0-31.3,0c-4.4,0-8.3-1.4-12-3.4C12.4,71.3,6.6,63.9,3.3,54.6c-1-2.8-1.6-5.6-1.9-8.5
	c-0.3-2.7-0.2-5.4,0-8.2c0.3-4.3,1.3-8.3,3.1-12.2C8.7,16.4,15.7,9.8,25.1,5.9c2.3-1,4.7-1.8,7.1-2.2c2-0.4,4.1-0.2,6.1-0.2
	c14.1,0,28.1,0,42.2,0c5.6,0,11.2,0,16.8,0c0.7,0,0.9,0.2,0.9,0.9c-0.1,6.3-0.1,12.6-0.2,18.8c0,1,0,2.1,0,3.1
	c0,0.6-0.2,0.7-0.7,0.7c-6.9-0.1-13.7,0.2-20.6,0.2c-7.7,0.1-15.3,0.2-23,0.4c-3.4,0.1-6.9,0-10.3,0.1c-2,0.1-4,0.1-6,0.1
	c-1.9,0-3.5,0.9-5,2.1c-3,2.4-5.1,5.3-6,9.1c-0.9,3.7-0.4,7.2,1.6,10.5c1.5,2.6,3.7,4.4,6.2,6c0.7,0.4,1.4,0.6,2.1,0.6
	c5.6,0.1,11.1-0.1,16.7-0.3c2.6,0,5.2,0,7.8-0.2c0.8,0,0.7,0,0.4-0.7c-0.6-1.2-1.5-2.4-2.2-3.5c-0.2-0.2-0.3-0.3-0.6-0.3
	c-2.7,0.1-5.4-0.2-8.1-0.2c-1.4,0-2.7-0.1-4.1-0.2c-0.8,0-1.1-0.4-0.7-1.1c0.6-1.2,1.2-2.4,1.9-3.6c2.3-4.3,4.6-8.5,6.9-12.8
	c0.4-0.8,0.9-1.1,1.9-1.1c6,0,12-0.1,18-0.2c0.6,0,0.8,0.1,1.1,0.7c3.6,7.2,7.2,14.5,10.8,21.7c3.5,6.9,6.9,13.9,10.4,20.8
	c0.6,1.3,1.3,2.5,1.9,3.8c0.3,0.7,0.2,0.9-0.6,0.9c-6.3,0-12.6,0-18.9-0.1C74,79.7,69.3,79.7,64.5,79.6
	C64.5,79.7,64.5,79.7,64.5,79.6z"/>
<g>
	<g>
		<path class="st3" d="M262,28.3c0,4.4,0,8.8,0,13.2c0,0.5-0.1,0.6-0.6,0.6c-3.7,0-7.4-0.1-11.1-0.1c-0.6,0-0.8-0.2-0.8-0.7
			c0-0.2,0-0.4,0-0.5c-0.1-5.5-0.2-11-0.3-16.4c-0.1-2.3-0.1-4.5-0.1-6.8c0-1.1-0.7-1.9-1.4-2.5c-2.8-2.6-7.5-2.3-9.8,0.7
			c-0.8,1.1-1.4,2.3-1.4,3.8c0.1,7.3,0.3,14.6,0.2,21.9c0,0.6-0.1,0.8-0.8,0.8c-3.8,0-7.7-0.3-11.5-0.2c-0.4,0-0.5-0.1-0.5-0.6
			c0.1-3.9-0.2-7.8-0.1-11.7c0-4.2-0.2-8.4-0.2-12.6c0-0.6-0.3-1.1-0.6-1.5c-1.3-1.6-2.9-2.4-5-2.5c-1.8-0.1-3.4,0.4-4.7,1.7
			c-1.1,1-1.5,2.3-1.5,3.7c-0.1,1.5,0,2.9-0.1,4.4c-0.3,6.1-0.1,12.2-0.1,18.3c0,0.4-0.2,0.5-0.6,0.5c-1.5,0-3,0.1-4.6,0.1
			c-2.3,0-4.6,0-6.8,0c-0.6,0-0.9-0.2-0.9-0.9c0.1-7.4,0.2-14.8,0.2-22.2c0-1.8,0.1-3.6,0.1-5.4c0-1.1,0.6-2,1.1-3
			c2.3-4,5.8-6.5,10.1-7.9c2.1-0.7,4.3-1,6.5-1c5.5,0,10.5,1.6,14.7,5.2c0.2,0.2,0.4,0.2,0.6,0c2.3-2.5,5.2-3.8,8.4-4.6
			c3.6-0.9,7.2-0.5,10.7,0.8c2.6,1,4.9,2.5,6.9,4.5c1.5,1.6,2.9,3.3,3.9,5.3c0.4,0.7,0.5,1.5,0.4,2.3
			C262.1,19.5,262.2,23.9,262,28.3z"/>
		<path class="st3" d="M268.6,30.5c0-3.2,0-6.3,0-9.5c0-2.3,0.2-4.5,0.2-6.8c0-1.1,0.6-2,1.1-3c2.3-4,5.8-6.4,10.1-7.8
			c3-1,6-1.3,9.1-0.9c4,0.5,7.8,1.8,11.1,4.4c0.4,0.3,0.7,0.8,1.2,0.9c0.4,0.1,0.7-0.6,1-0.9c2.3-2.1,5.2-3.3,8.2-4
			c3.5-0.7,7-0.4,10.3,0.9c3,1.2,5.5,2.9,7.6,5.3c1.1,1.3,2.2,2.7,3,4.3c0.4,0.7,0.5,1.5,0.5,2.2c0,8.8-0.1,17.7-0.1,26.5
			c0,0.6-0.2,0.7-0.7,0.7c-3.6,0-7.3-0.1-10.9,0c-0.7,0-0.9-0.2-0.9-0.9c-0.1-2.7,0-5.4-0.1-8.1c-0.2-5.2-0.3-10.4-0.3-15.6
			c0-1-0.6-1.8-1.3-2.5c-2.7-2.6-7.3-2.3-9.7,0.5c-1,1.2-1.6,2.5-1.5,4.1c0.1,7.3,0.3,14.5,0.2,21.8c0,0.7-0.2,0.8-0.8,0.8
			c-3.8,0-7.7-0.3-11.5-0.2c-0.4,0-0.6-0.1-0.5-0.5c0-0.1,0-0.2,0-0.3c0.1-5.6-0.2-11.2-0.2-16.9c0-2.4-0.2-4.8-0.2-7.2
			c0-0.6-0.3-1.1-0.7-1.5c-1.3-1.6-2.9-2.4-4.9-2.4c-1.4,0-2.6,0.2-3.8,1c-1.6,1-2.3,2.6-2.4,4.4c-0.1,1.5,0,3.1-0.1,4.6
			c-0.3,6-0.1,12.1-0.1,18.1c0,0.4-0.1,0.6-0.5,0.6c-3.9,0.2-7.8,0.1-11.7,0.1c-0.6,0-0.6-0.4-0.6-0.8c0-2.8,0-5.5,0.1-8.3
			C268.6,32.6,268.6,31.5,268.6,30.5C268.6,30.5,268.6,30.5,268.6,30.5z"/>
		<path class="st3" d="M137.4,5c4.1,0,8.3,0,12.4,0c0.5,0,0.7,0.1,0.7,0.7c0,2.8,0,5.6,0,8.4c0,0.5-0.2,0.6-0.7,0.6
			c-4.8,0-9.7,0-14.5,0c-2,0-4-0.2-6-0.1c-3.1,0.1-5.9,1-8.1,3.4c-1.3,1.4-2,3.1-2.2,5c-0.3,2.9,0.5,5.5,2.5,7.6
			c1.3,1.4,2.8,2.6,4.6,3.3c0.5,0.2,1,0.3,1.6,0.3c3.8,0,7.6-0.1,11.4,0c1.5,0,2.2-1.7,2-2.9c-0.1-0.4-0.2-0.8-0.5-1.2
			c-0.3-0.4-0.7-0.7-1.3-0.7c-2.7,0-5.3-0.1-8-0.1c-0.5,0-0.6-0.2-0.6-0.6c0-2.4,0-4.8,0-7.2c0-0.4,0.1-0.5,0.5-0.5
			c4,0,8-0.1,11.9,0.1c2.8,0.1,5.1,1.8,6.8,4c1.9,2.5,2.7,5.3,2.4,8.4c-0.5,5-3.7,9.2-8.6,10.5c-1.1,0.3-2.3,0.5-3.4,0.4
			c-4.5-0.1-9.1-0.2-13.6-0.3c-2.4,0-4.8-0.2-7.1-1.1c-4.8-2-8.4-5.4-10.6-10.1c-1.6-3.3-2.1-6.9-1.7-10.6
			c0.7-5.8,3.4-10.5,8.3-13.9c1.5-1.1,3.2-1.7,5-2.4c2.3-0.9,4.6-1,7-0.9C131.1,5,134.2,5,137.4,5C137.4,5,137.4,5,137.4,5z"/>
		<path class="st3" d="M157.7,18.5c0-4.6,0-9.2,0-13.8c0-0.5,0.2-0.7,0.7-0.7c3.4,0,6.8,0.1,10.2,0c0.5,0,0.6,0.2,0.6,0.6
			c-0.1,4.4,0.2,8.7,0.2,13.1c0,2.8,0.1,5.6,0.1,8.3c0,1.1,0.1,2.1,0.2,3.2c0.1,1.1,0.8,1.8,1.8,2.3c1.4,0.7,2.9,1,4.5,0.8
			c1.3-0.1,2.5-0.5,3.5-1.2c1.1-0.8,1.6-1.9,1.6-3.2c0-5.5,0.1-10.9-0.1-16.4c-0.1-2.4,0-4.8-0.1-7.2c0-0.5,0.1-0.6,0.6-0.6
			c3.2,0,6.5,0,9.7,0c0.5,0,0.7,0.1,0.7,0.6c-0.1,5.1,0.2,10.2,0.3,15.4c0,2.9,0,5.7,0.1,8.6c0,1.1,0.1,2.3,0.2,3.4
			c0.1,2.1-0.7,3.9-1.8,5.6c-1.8,2.7-4.2,4.5-7.2,5.6c-1.6,0.5-3.2,0.9-4.8,1.1c-1.8,0.2-3.5,0.4-5.3,0.3c-3.7-0.2-7.2-0.9-10.3-3.1
			c-2.4-1.7-4-4-4.9-6.8c-0.5-1.4-0.5-2.8-0.5-4.3C157.8,26.4,157.7,22.5,157.7,18.5C157.7,18.5,157.7,18.5,157.7,18.5z"/>
		<path class="st3" d="M338.5,28.2c0-2.8,0-5,0-7.3c0-0.5,0.1-0.7,0.6-0.7c3.4,0,6.8,0,10.2,0c0.6,0,0.7,0.2,0.7,0.7
			c0,3.3,0,6.7,0,10c0,1.5,1.3,2.5,2.5,2.5c1.5,0,3,0,4.5,0c0.4,0,0.6,0.1,0.6,0.6c0,3.1,0,6.2,0,9.3c0,0.4-0.1,0.5-0.5,0.5
			c-3.1,0-6.2,0.1-9.4,0c-2.9-0.1-5.6-1.2-7.3-3.7c-0.9-1.3-1.4-2.8-1.7-4.4C338.2,33,338.7,30.4,338.5,28.2z"/>
	</g>
	<path class="st3" d="M344,3c1.7,0,3.5,0,5.2,0c0.4,0,0.6,0.1,0.6,0.6c0,3.5,0,6.9,0,10.4c0,0.4-0.1,0.6-0.6,0.6
		c-3.5,0-7.1,0-10.6,0c-0.5,0-0.6-0.2-0.6-0.6c0-3.5,0-6.9,0-10.4c0-0.5,0.2-0.6,0.6-0.6C340.5,3,342.3,3,344,3z"/>
</g>
<g>
	<path class="st3" d="M116.6,66v10.8h-1.5V66H116.6z"/>
	<path class="st3" d="M165.6,67.4h-2.7v9.4h-1.5v-9.4h-2.7V66h6.9V67.4z"/>
	<path class="st3" d="M213.1,74.2h-4.6l-0.9,2.6H206L210,66h1.7l3.9,10.8H214L213.1,74.2z M212.6,72.8l-1.8-5.2l-1.8,5.2H212.6z"/>
	<path class="st3" d="M263.4,75.4v1.4h-5.9V66h1.5v9.4H263.4z"/>
	<path class="st3" d="M307,66v10.8h-1.5V66H307z"/>
	<path class="st3" d="M355.9,74.2h-4.6l-0.9,2.6h-1.6l3.9-10.8h1.7l3.9,10.8h-1.6L355.9,74.2z M355.4,72.8l-1.8-5.2l-1.8,5.2H355.4z
		"/>
</g>
</svg>
